<?xml version="1.0" standalone="no"?>
<!DOCTYPE svg PUBLIC "-//W3C//DTD SVG 20010904//EN"
 "http://www.w3.org/TR/2001/REC-SVG-20010904/DTD/svg10.dtd">
<svg version="1.0" xmlns="http://www.w3.org/2000/svg"
 width="1920.000000pt" height="942.000000pt" viewBox="0 0 1920.000000 942.000000"
 preserveAspectRatio="xMidYMid meet">
<metadata>
Created by potrace 1.15, written by Peter Selinger 2001-2017
</metadata>
<g transform="translate(0.000000,942.000000) scale(0.100000,-0.100000)"
fill="#000000" stroke="none">
<path d="M0 7532 l0 -1888 72 -12 c40 -6 109 -18 153 -26 116 -22 247 -45 350
-62 193 -34 242 -43 295 -57 30 -9 98 -23 150 -32 52 -9 129 -23 170 -30 79
-15 181 -32 345 -60 55 -9 109 -21 120 -25 11 -5 36 -11 55 -15 64 -11 184
-33 245 -44 178 -33 339 -62 458 -82 37 -6 70 -15 73 -20 3 -5 19 -9 36 -9 16
0 60 -7 97 -14 36 -8 104 -22 151 -30 47 -9 123 -22 170 -31 91 -16 150 -26
299 -50 52 -9 99 -20 105 -24 6 -5 34 -12 61 -16 28 -3 79 -13 115 -20 36 -8
103 -20 150 -29 47 -8 123 -21 170 -30 47 -8 128 -22 180 -31 119 -20 189 -35
215 -46 11 -4 52 -12 90 -18 39 -6 95 -15 125 -21 55 -10 162 -30 300 -55 41
-7 110 -19 153 -26 43 -6 80 -16 83 -20 3 -5 17 -9 31 -9 14 0 55 -7 92 -14
36 -8 104 -22 151 -30 47 -9 123 -22 170 -31 116 -21 188 -33 298 -49 51 -8
99 -19 105 -25 7 -5 37 -13 67 -16 30 -4 69 -11 85 -16 17 -5 59 -13 95 -18
36 -6 103 -17 150 -26 92 -17 268 -48 396 -69 45 -8 90 -19 100 -24 10 -6 51
-16 89 -21 39 -6 95 -15 125 -21 83 -16 303 -54 480 -85 52 -9 118 -23 145
-31 28 -7 88 -21 135 -29 246 -44 359 -64 510 -89 52 -9 111 -20 130 -26 19
-6 55 -15 80 -20 118 -22 249 -46 410 -74 47 -9 121 -22 165 -30 44 -8 105
-18 135 -21 30 -4 69 -13 85 -20 17 -7 62 -18 100 -25 39 -6 104 -18 145 -25
41 -8 113 -21 160 -29 47 -8 137 -24 200 -36 63 -11 138 -23 165 -26 28 -4 55
-10 60 -14 11 -9 102 -27 365 -74 47 -9 121 -22 165 -30 44 -8 100 -17 125
-21 73 -10 154 -26 175 -35 11 -5 36 -11 55 -14 19 -2 60 -9 90 -15 60 -12
164 -31 305 -56 50 -9 124 -22 165 -30 137 -26 175 -27 291 -10 63 8 123 20
134 25 11 5 79 17 150 26 72 10 132 20 135 24 3 3 81 16 174 29 94 13 177 27
185 31 9 5 75 16 146 26 72 9 135 20 140 24 6 4 71 15 145 25 74 10 137 21
140 25 3 3 66 14 140 24 74 10 140 21 145 26 6 4 69 15 140 24 72 10 143 22
160 27 16 5 95 19 175 30 80 11 154 24 165 29 11 5 79 17 150 26 72 10 132 20
135 24 3 3 68 14 145 25 77 10 142 21 145 25 3 4 65 15 139 24 74 10 141 22
150 26 9 5 86 18 171 30 85 11 164 25 175 29 11 5 79 17 150 26 72 10 135 21
140 25 6 4 71 15 145 25 74 10 137 21 140 25 3 3 68 14 145 25 77 10 142 21
145 25 3 4 82 17 175 30 94 13 172 26 175 30 3 3 66 14 140 24 74 10 140 21
145 26 6 4 71 15 145 25 74 10 137 21 140 25 3 3 68 14 145 25 77 10 142 21
145 25 3 3 31 11 63 16 l59 9 30 85 c16 47 49 141 73 210 24 69 74 211 110
315 37 105 86 246 110 315 24 69 69 197 100 285 31 88 67 192 80 230 13 39 49
142 80 230 31 88 61 171 65 185 5 14 38 111 75 215 37 105 86 246 110 315 24
69 74 211 110 315 37 105 86 246 110 315 24 69 74 211 110 315 37 105 86 246
110 315 24 69 69 197 100 285 31 88 60 171 65 185 14 42 96 276 155 445 71
203 135 387 135 392 0 1 -4318 3 -9595 3 l-9595 0 0 -1888z"/>
</g>
</svg>
